solid ASCII
  facet normal 1.000000e+00 0.000000e+00 -0.000000e+00
    outer loop
      vertex   8.850000e+00 4.000000e+00 5.550000e+00
      vertex   8.850000e+00 4.000000e+00 1.085000e+01
      vertex   8.850000e+00 0.000000e+00 5.550000e+00
    endloop
  endfacet
  facet normal 1.000000e+00 0.000000e+00 0.000000e+00
    outer loop
      vertex   8.850000e+00 0.000000e+00 5.550000e+00
      vertex   8.850000e+00 4.000000e+00 1.085000e+01
      vertex   8.850000e+00 0.000000e+00 1.085000e+01
    endloop
  endfacet
  facet normal 0.000000e+00 0.000000e+00 -1.000000e+00
    outer loop
      vertex   8.850000e+00 4.000000e+00 1.085000e+01
      vertex   1.215000e+01 4.000000e+00 1.085000e+01
      vertex   8.850000e+00 0.000000e+00 1.085000e+01
    endloop
  endfacet
  facet normal -1.614870e-15 1.332268e-15 -1.000000e+00
    outer loop
      vertex   8.850000e+00 0.000000e+00 1.085000e+01
      vertex   1.215000e+01 4.000000e+00 1.085000e+01
      vertex   1.215000e+01 0.000000e+00 1.085000e+01
    endloop
  endfacet
  facet normal -1.000000e+00 -4.465250e-31 3.351617e-16
    outer loop
      vertex   1.215000e+01 4.000000e+00 1.085000e+01
      vertex   1.215000e+01 4.000000e+00 5.550000e+00
      vertex   1.215000e+01 0.000000e+00 1.085000e+01
    endloop
  endfacet
  facet normal -1.000000e+00 0.000000e+00 3.351617e-16
    outer loop
      vertex   1.215000e+01 0.000000e+00 1.085000e+01
      vertex   1.215000e+01 4.000000e+00 5.550000e+00
      vertex   1.215000e+01 0.000000e+00 5.550000e+00
    endloop
  endfacet
  facet normal 8.074349e-16 0.000000e+00 1.000000e+00
    outer loop
      vertex   1.215000e+01 4.000000e+00 5.550000e+00
      vertex   8.850000e+00 4.000000e+00 5.550000e+00
      vertex   1.215000e+01 0.000000e+00 5.550000e+00
    endloop
  endfacet
  facet normal 8.074349e-16 0.000000e+00 1.000000e+00
    outer loop
      vertex   1.215000e+01 0.000000e+00 5.550000e+00
      vertex   8.850000e+00 4.000000e+00 5.550000e+00
      vertex   8.850000e+00 0.000000e+00 5.550000e+00
    endloop
  endfacet
  facet normal 1.000000e+00 0.000000e+00 -0.000000e+00
    outer loop
      vertex   8.850000e+00 4.000000e+00 -1.085000e+01
      vertex   8.850000e+00 4.000000e+00 -5.550000e+00
      vertex   8.850000e+00 0.000000e+00 -1.085000e+01
    endloop
  endfacet
  facet normal 1.000000e+00 0.000000e+00 0.000000e+00
    outer loop
      vertex   8.850000e+00 0.000000e+00 -1.085000e+01
      vertex   8.850000e+00 4.000000e+00 -5.550000e+00
      vertex   8.850000e+00 0.000000e+00 -5.550000e+00
    endloop
  endfacet
  facet normal 0.000000e+00 0.000000e+00 -1.000000e+00
    outer loop
      vertex   8.850000e+00 4.000000e+00 -5.550000e+00
      vertex   1.215000e+01 4.000000e+00 -5.550000e+00
      vertex   8.850000e+00 0.000000e+00 -5.550000e+00
    endloop
  endfacet
  facet normal 0.000000e+00 0.000000e+00 -1.000000e+00
    outer loop
      vertex   8.850000e+00 0.000000e+00 -5.550000e+00
      vertex   1.215000e+01 4.000000e+00 -5.550000e+00
      vertex   1.215000e+01 0.000000e+00 -5.550000e+00
    endloop
  endfacet
  facet normal -1.000000e+00 0.000000e+00 3.351617e-16
    outer loop
      vertex   1.215000e+01 4.000000e+00 -5.550000e+00
      vertex   1.215000e+01 4.000000e+00 -1.085000e+01
      vertex   1.215000e+01 0.000000e+00 -5.550000e+00
    endloop
  endfacet
  facet normal -1.000000e+00 0.000000e+00 3.351617e-16
    outer loop
      vertex   1.215000e+01 0.000000e+00 -5.550000e+00
      vertex   1.215000e+01 4.000000e+00 -1.085000e+01
      vertex   1.215000e+01 0.000000e+00 -1.085000e+01
    endloop
  endfacet
  facet normal 0.000000e+00 0.000000e+00 1.000000e+00
    outer loop
      vertex   1.215000e+01 4.000000e+00 -1.085000e+01
      vertex   8.850000e+00 4.000000e+00 -1.085000e+01
      vertex   1.215000e+01 0.000000e+00 -1.085000e+01
    endloop
  endfacet
  facet normal 0.000000e+00 0.000000e+00 1.000000e+00
    outer loop
      vertex   1.215000e+01 0.000000e+00 -1.085000e+01
      vertex   8.850000e+00 4.000000e+00 -1.085000e+01
      vertex   8.850000e+00 0.000000e+00 -1.085000e+01
    endloop
  endfacet
  facet normal 1.000000e+00 0.000000e+00 -0.000000e+00
    outer loop
      vertex   8.850000e+00 4.000000e+00 -2.650000e+00
      vertex   8.850000e+00 4.000000e+00 2.650000e+00
      vertex   8.850000e+00 0.000000e+00 -2.650000e+00
    endloop
  endfacet
  facet normal 1.000000e+00 0.000000e+00 0.000000e+00
    outer loop
      vertex   8.850000e+00 0.000000e+00 -2.650000e+00
      vertex   8.850000e+00 4.000000e+00 2.650000e+00
      vertex   8.850000e+00 0.000000e+00 2.650000e+00
    endloop
  endfacet
  facet normal -2.691450e-16 -0.000000e+00 -1.000000e+00
    outer loop
      vertex   8.850000e+00 4.000000e+00 2.650000e+00
      vertex   1.215000e+01 4.000000e+00 2.650000e+00
      vertex   8.850000e+00 0.000000e+00 2.650000e+00
    endloop
  endfacet
  facet normal -4.037175e-16 1.110223e-16 -1.000000e+00
    outer loop
      vertex   8.850000e+00 0.000000e+00 2.650000e+00
      vertex   1.215000e+01 4.000000e+00 2.650000e+00
      vertex   1.215000e+01 0.000000e+00 2.650000e+00
    endloop
  endfacet
  facet normal -1.000000e+00 -3.721042e-32 3.351617e-16
    outer loop
      vertex   1.215000e+01 4.000000e+00 2.650000e+00
      vertex   1.215000e+01 4.000000e+00 -2.650000e+00
      vertex   1.215000e+01 0.000000e+00 2.650000e+00
    endloop
  endfacet
  facet normal -1.000000e+00 0.000000e+00 3.351617e-16
    outer loop
      vertex   1.215000e+01 0.000000e+00 2.650000e+00
      vertex   1.215000e+01 4.000000e+00 -2.650000e+00
      vertex   1.215000e+01 0.000000e+00 -2.650000e+00
    endloop
  endfacet
  facet normal 4.037175e-16 0.000000e+00 1.000000e+00
    outer loop
      vertex   1.215000e+01 4.000000e+00 -2.650000e+00
      vertex   8.850000e+00 4.000000e+00 -2.650000e+00
      vertex   1.215000e+01 0.000000e+00 -2.650000e+00
    endloop
  endfacet
  facet normal 4.037175e-16 0.000000e+00 1.000000e+00
    outer loop
      vertex   1.215000e+01 0.000000e+00 -2.650000e+00
      vertex   8.850000e+00 4.000000e+00 -2.650000e+00
      vertex   8.850000e+00 0.000000e+00 -2.650000e+00
    endloop
  endfacet
  facet normal 1.000000e+00 0.000000e+00 -8.881784e-17
    outer loop
      vertex   -4.500000e+00 4.000000e+00 -1.000000e+01
      vertex   -4.500000e+00 4.000000e+00 -2.000000e+01
      vertex   -4.500000e+00 8.000000e+00 -1.000000e+01
    endloop
  endfacet
  facet normal 1.000000e+00 0.000000e+00 -8.881784e-17
    outer loop
      vertex   -4.500000e+00 8.000000e+00 -1.000000e+01
      vertex   -4.500000e+00 4.000000e+00 -2.000000e+01
      vertex   -4.500000e+00 8.000000e+00 -2.000000e+01
    endloop
  endfacet
  facet normal 0.000000e+00 0.000000e+00 1.000000e+00
    outer loop
      vertex   -1.450000e+01 4.000000e+00 -1.000000e+01
      vertex   -4.500000e+00 4.000000e+00 -1.000000e+01
      vertex   -1.450000e+01 8.000000e+00 -1.000000e+01
    endloop
  endfacet
  facet normal -0.000000e+00 0.000000e+00 1.000000e+00
    outer loop
      vertex   -1.450000e+01 8.000000e+00 -1.000000e+01
      vertex   -4.500000e+00 4.000000e+00 -1.000000e+01
      vertex   -4.500000e+00 8.000000e+00 -1.000000e+01
    endloop
  endfacet
  facet normal -1.000000e+00 0.000000e+00 0.000000e+00
    outer loop
      vertex   -1.450000e+01 4.000000e+00 -2.000000e+01
      vertex   -1.450000e+01 4.000000e+00 -1.000000e+01
      vertex   -1.450000e+01 8.000000e+00 -2.000000e+01
    endloop
  endfacet
  facet normal -1.000000e+00 0.000000e+00 0.000000e+00
    outer loop
      vertex   -1.450000e+01 8.000000e+00 -2.000000e+01
      vertex   -1.450000e+01 4.000000e+00 -1.000000e+01
      vertex   -1.450000e+01 8.000000e+00 -1.000000e+01
    endloop
  endfacet
  facet normal 0.000000e+00 0.000000e+00 -1.000000e+00
    outer loop
      vertex   -4.500000e+00 4.000000e+00 -2.000000e+01
      vertex   -1.450000e+01 4.000000e+00 -2.000000e+01
      vertex   -4.500000e+00 8.000000e+00 -2.000000e+01
    endloop
  endfacet
  facet normal -0.000000e+00 0.000000e+00 -1.000000e+00
    outer loop
      vertex   -4.500000e+00 8.000000e+00 -2.000000e+01
      vertex   -1.450000e+01 4.000000e+00 -2.000000e+01
      vertex   -1.450000e+01 8.000000e+00 -2.000000e+01
    endloop
  endfacet
  facet normal 0.000000e+00 1.000000e+00 0.000000e+00
    outer loop
      vertex   -1.450000e+01 8.000000e+00 -2.000000e+01
      vertex   -1.450000e+01 8.000000e+00 -1.000000e+01
      vertex   -4.500000e+00 8.000000e+00 -2.000000e+01
    endloop
  endfacet
  facet normal 0.000000e+00 1.000000e+00 -0.000000e+00
    outer loop
      vertex   -4.500000e+00 8.000000e+00 -2.000000e+01
      vertex   -1.450000e+01 8.000000e+00 -1.000000e+01
      vertex   -4.500000e+00 8.000000e+00 -1.000000e+01
    endloop
  endfacet
  facet normal 1.000000e+00 0.000000e+00 -8.881784e-17
    outer loop
      vertex   -4.500000e+00 4.000000e+00 2.000000e+01
      vertex   -4.500000e+00 4.000000e+00 1.000000e+01
      vertex   -4.500000e+00 8.000000e+00 2.000000e+01
    endloop
  endfacet
  facet normal 1.000000e+00 0.000000e+00 -8.881784e-17
    outer loop
      vertex   -4.500000e+00 8.000000e+00 2.000000e+01
      vertex   -4.500000e+00 4.000000e+00 1.000000e+01
      vertex   -4.500000e+00 8.000000e+00 1.000000e+01
    endloop
  endfacet
  facet normal 0.000000e+00 0.000000e+00 1.000000e+00
    outer loop
      vertex   -1.450000e+01 4.000000e+00 2.000000e+01
      vertex   -4.500000e+00 4.000000e+00 2.000000e+01
      vertex   -1.450000e+01 8.000000e+00 2.000000e+01
    endloop
  endfacet
  facet normal -0.000000e+00 0.000000e+00 1.000000e+00
    outer loop
      vertex   -1.450000e+01 8.000000e+00 2.000000e+01
      vertex   -4.500000e+00 4.000000e+00 2.000000e+01
      vertex   -4.500000e+00 8.000000e+00 2.000000e+01
    endloop
  endfacet
  facet normal -1.000000e+00 0.000000e+00 0.000000e+00
    outer loop
      vertex   -1.450000e+01 4.000000e+00 1.000000e+01
      vertex   -1.450000e+01 4.000000e+00 2.000000e+01
      vertex   -1.450000e+01 8.000000e+00 1.000000e+01
    endloop
  endfacet
  facet normal -1.000000e+00 0.000000e+00 0.000000e+00
    outer loop
      vertex   -1.450000e+01 8.000000e+00 1.000000e+01
      vertex   -1.450000e+01 4.000000e+00 2.000000e+01
      vertex   -1.450000e+01 8.000000e+00 2.000000e+01
    endloop
  endfacet
  facet normal 0.000000e+00 0.000000e+00 -1.000000e+00
    outer loop
      vertex   -4.500000e+00 4.000000e+00 1.000000e+01
      vertex   -1.450000e+01 4.000000e+00 1.000000e+01
      vertex   -4.500000e+00 8.000000e+00 1.000000e+01
    endloop
  endfacet
  facet normal -0.000000e+00 0.000000e+00 -1.000000e+00
    outer loop
      vertex   -4.500000e+00 8.000000e+00 1.000000e+01
      vertex   -1.450000e+01 4.000000e+00 1.000000e+01
      vertex   -1.450000e+01 8.000000e+00 1.000000e+01
    endloop
  endfacet
  facet normal 0.000000e+00 1.000000e+00 0.000000e+00
    outer loop
      vertex   -1.450000e+01 8.000000e+00 1.000000e+01
      vertex   -1.450000e+01 8.000000e+00 2.000000e+01
      vertex   -4.500000e+00 8.000000e+00 1.000000e+01
    endloop
  endfacet
  facet normal 0.000000e+00 1.000000e+00 -0.000000e+00
    outer loop
      vertex   -4.500000e+00 8.000000e+00 1.000000e+01
      vertex   -1.450000e+01 8.000000e+00 2.000000e+01
      vertex   -4.500000e+00 8.000000e+00 2.000000e+01
    endloop
  endfacet
  facet normal 1.000000e+00 -3.944305e-32 -1.776357e-16
    outer loop
      vertex   -4.500000e+00 4.000000e+00 5.000000e+00
      vertex   -4.500000e+00 4.000000e+00 -5.000000e+00
      vertex   -4.500000e+00 8.000000e+00 5.000000e+00
    endloop
  endfacet
  facet normal 1.000000e+00 0.000000e+00 -1.776357e-16
    outer loop
      vertex   -4.500000e+00 8.000000e+00 5.000000e+00
      vertex   -4.500000e+00 4.000000e+00 -5.000000e+00
      vertex   -4.500000e+00 8.000000e+00 -5.000000e+00
    endloop
  endfacet
  facet normal -8.881784e-17 0.000000e+00 1.000000e+00
    outer loop
      vertex   -1.450000e+01 4.000000e+00 5.000000e+00
      vertex   -4.500000e+00 4.000000e+00 5.000000e+00
      vertex   -1.450000e+01 8.000000e+00 5.000000e+00
    endloop
  endfacet
  facet normal -0.000000e+00 2.220446e-16 1.000000e+00
    outer loop
      vertex   -1.450000e+01 8.000000e+00 5.000000e+00
      vertex   -4.500000e+00 4.000000e+00 5.000000e+00
      vertex   -4.500000e+00 8.000000e+00 5.000000e+00
    endloop
  endfacet
  facet normal -1.000000e+00 0.000000e+00 0.000000e+00
    outer loop
      vertex   -1.450000e+01 4.000000e+00 -5.000000e+00
      vertex   -1.450000e+01 4.000000e+00 5.000000e+00
      vertex   -1.450000e+01 8.000000e+00 -5.000000e+00
    endloop
  endfacet
  facet normal -1.000000e+00 0.000000e+00 0.000000e+00
    outer loop
      vertex   -1.450000e+01 8.000000e+00 -5.000000e+00
      vertex   -1.450000e+01 4.000000e+00 5.000000e+00
      vertex   -1.450000e+01 8.000000e+00 5.000000e+00
    endloop
  endfacet
  facet normal 0.000000e+00 0.000000e+00 -1.000000e+00
    outer loop
      vertex   -4.500000e+00 4.000000e+00 -5.000000e+00
      vertex   -1.450000e+01 4.000000e+00 -5.000000e+00
      vertex   -4.500000e+00 8.000000e+00 -5.000000e+00
    endloop
  endfacet
  facet normal -0.000000e+00 0.000000e+00 -1.000000e+00
    outer loop
      vertex   -4.500000e+00 8.000000e+00 -5.000000e+00
      vertex   -1.450000e+01 4.000000e+00 -5.000000e+00
      vertex   -1.450000e+01 8.000000e+00 -5.000000e+00
    endloop
  endfacet
  facet normal 0.000000e+00 1.000000e+00 0.000000e+00
    outer loop
      vertex   -1.450000e+01 8.000000e+00 -5.000000e+00
      vertex   -1.450000e+01 8.000000e+00 5.000000e+00
      vertex   -4.500000e+00 8.000000e+00 -5.000000e+00
    endloop
  endfacet
  facet normal 0.000000e+00 1.000000e+00 -0.000000e+00
    outer loop
      vertex   -4.500000e+00 8.000000e+00 -5.000000e+00
      vertex   -1.450000e+01 8.000000e+00 5.000000e+00
      vertex   -4.500000e+00 8.000000e+00 5.000000e+00
    endloop
  endfacet
  facet normal 1.000000e+00 1.262177e-31 -1.421085e-16
    outer loop
      vertex   1.750000e+01 0.000000e+00 2.500000e+01
      vertex   1.750000e+01 0.000000e+00 -2.500000e+01
      vertex   1.750000e+01 4.000000e+00 2.500000e+01
    endloop
  endfacet
  facet normal 1.000000e+00 0.000000e+00 -1.421085e-16
    outer loop
      vertex   1.750000e+01 4.000000e+00 2.500000e+01
      vertex   1.750000e+01 0.000000e+00 -2.500000e+01
      vertex   1.750000e+01 4.000000e+00 -2.500000e+01
    endloop
  endfacet
  facet normal 1.015061e-16 -0.000000e+00 1.000000e+00
    outer loop
      vertex   -1.750000e+01 0.000000e+00 2.500000e+01
      vertex   1.750000e+01 0.000000e+00 2.500000e+01
      vertex   -1.750000e+01 4.000000e+00 2.500000e+01
    endloop
  endfacet
  facet normal 0.000000e+00 -8.881784e-16 1.000000e+00
    outer loop
      vertex   -1.750000e+01 4.000000e+00 2.500000e+01
      vertex   1.750000e+01 0.000000e+00 2.500000e+01
      vertex   1.750000e+01 4.000000e+00 2.500000e+01
    endloop
  endfacet
  facet normal -1.000000e+00 0.000000e+00 7.105427e-17
    outer loop
      vertex   -1.750000e+01 0.000000e+00 -2.500000e+01
      vertex   -1.750000e+01 0.000000e+00 2.500000e+01
      vertex   -1.750000e+01 4.000000e+00 -2.500000e+01
    endloop
  endfacet
  facet normal -1.000000e+00 0.000000e+00 7.105427e-17
    outer loop
      vertex   -1.750000e+01 4.000000e+00 -2.500000e+01
      vertex   -1.750000e+01 0.000000e+00 2.500000e+01
      vertex   -1.750000e+01 4.000000e+00 2.500000e+01
    endloop
  endfacet
  facet normal 0.000000e+00 0.000000e+00 -1.000000e+00
    outer loop
      vertex   1.750000e+01 0.000000e+00 -2.500000e+01
      vertex   -1.750000e+01 0.000000e+00 -2.500000e+01
      vertex   1.750000e+01 4.000000e+00 -2.500000e+01
    endloop
  endfacet
  facet normal -0.000000e+00 0.000000e+00 -1.000000e+00
    outer loop
      vertex   1.750000e+01 4.000000e+00 -2.500000e+01
      vertex   -1.750000e+01 0.000000e+00 -2.500000e+01
      vertex   -1.750000e+01 4.000000e+00 -2.500000e+01
    endloop
  endfacet
  facet normal 0.000000e+00 1.000000e+00 -0.000000e+00
    outer loop
      vertex   8.850000e+00 4.000000e+00 5.550000e+00
      vertex   -4.500000e+00 4.000000e+00 1.000000e+01
      vertex   8.850000e+00 4.000000e+00 1.085000e+01
    endloop
  endfacet
  facet normal 0.000000e+00 1.000000e+00 0.000000e+00
    outer loop
      vertex   8.850000e+00 4.000000e+00 1.085000e+01
      vertex   -4.500000e+00 4.000000e+00 1.000000e+01
      vertex   -4.500000e+00 4.000000e+00 2.000000e+01
    endloop
  endfacet
  facet normal 0.000000e+00 1.000000e+00 -0.000000e+00
    outer loop
      vertex   8.850000e+00 4.000000e+00 1.085000e+01
      vertex   -4.500000e+00 4.000000e+00 2.000000e+01
      vertex   1.750000e+01 4.000000e+00 2.500000e+01
    endloop
  endfacet
  facet normal 0.000000e+00 1.000000e+00 0.000000e+00
    outer loop
      vertex   1.750000e+01 4.000000e+00 2.500000e+01
      vertex   -4.500000e+00 4.000000e+00 2.000000e+01
      vertex   -1.750000e+01 4.000000e+00 2.500000e+01
    endloop
  endfacet
  facet normal 0.000000e+00 1.000000e+00 0.000000e+00
    outer loop
      vertex   -1.750000e+01 4.000000e+00 2.500000e+01
      vertex   -4.500000e+00 4.000000e+00 2.000000e+01
      vertex   -1.450000e+01 4.000000e+00 2.000000e+01
    endloop
  endfacet
  facet normal 0.000000e+00 1.000000e+00 0.000000e+00
    outer loop
      vertex   -1.750000e+01 4.000000e+00 2.500000e+01
      vertex   -1.450000e+01 4.000000e+00 2.000000e+01
      vertex   -1.450000e+01 4.000000e+00 1.000000e+01
    endloop
  endfacet
  facet normal 0.000000e+00 1.000000e+00 0.000000e+00
    outer loop
      vertex   1.215000e+01 4.000000e+00 5.550000e+00
      vertex   1.215000e+01 4.000000e+00 2.650000e+00
      vertex   8.850000e+00 4.000000e+00 5.550000e+00
    endloop
  endfacet
  facet normal 0.000000e+00 1.000000e+00 0.000000e+00
    outer loop
      vertex   8.850000e+00 4.000000e+00 5.550000e+00
      vertex   1.215000e+01 4.000000e+00 2.650000e+00
      vertex   8.850000e+00 4.000000e+00 2.650000e+00
    endloop
  endfacet
  facet normal 0.000000e+00 1.000000e+00 0.000000e+00
    outer loop
      vertex   8.850000e+00 4.000000e+00 5.550000e+00
      vertex   8.850000e+00 4.000000e+00 2.650000e+00
      vertex   -4.500000e+00 4.000000e+00 5.000000e+00
    endloop
  endfacet
  facet normal 0.000000e+00 1.000000e+00 0.000000e+00
    outer loop
      vertex   -4.500000e+00 4.000000e+00 5.000000e+00
      vertex   8.850000e+00 4.000000e+00 2.650000e+00
      vertex   8.850000e+00 4.000000e+00 -2.650000e+00
    endloop
  endfacet
  facet normal 0.000000e+00 1.000000e+00 0.000000e+00
    outer loop
      vertex   -4.500000e+00 4.000000e+00 5.000000e+00
      vertex   8.850000e+00 4.000000e+00 -2.650000e+00
      vertex   -4.500000e+00 4.000000e+00 -5.000000e+00
    endloop
  endfacet
  facet normal -0.000000e+00 1.000000e+00 0.000000e+00
    outer loop
      vertex   -4.500000e+00 4.000000e+00 -5.000000e+00
      vertex   8.850000e+00 4.000000e+00 -2.650000e+00
      vertex   8.850000e+00 4.000000e+00 -5.550000e+00
    endloop
  endfacet
  facet normal 0.000000e+00 1.000000e+00 0.000000e+00
    outer loop
      vertex   -4.500000e+00 4.000000e+00 -5.000000e+00
      vertex   8.850000e+00 4.000000e+00 -5.550000e+00
      vertex   -4.500000e+00 4.000000e+00 -1.000000e+01
    endloop
  endfacet
  facet normal -0.000000e+00 1.000000e+00 0.000000e+00
    outer loop
      vertex   -4.500000e+00 4.000000e+00 -1.000000e+01
      vertex   8.850000e+00 4.000000e+00 -5.550000e+00
      vertex   8.850000e+00 4.000000e+00 -1.085000e+01
    endloop
  endfacet
  facet normal 0.000000e+00 1.000000e+00 0.000000e+00
    outer loop
      vertex   -4.500000e+00 4.000000e+00 -1.000000e+01
      vertex   8.850000e+00 4.000000e+00 -1.085000e+01
      vertex   -4.500000e+00 4.000000e+00 -2.000000e+01
    endloop
  endfacet
  facet normal -0.000000e+00 1.000000e+00 0.000000e+00
    outer loop
      vertex   -4.500000e+00 4.000000e+00 -2.000000e+01
      vertex   8.850000e+00 4.000000e+00 -1.085000e+01
      vertex   1.750000e+01 4.000000e+00 -2.500000e+01
    endloop
  endfacet
  facet normal 0.000000e+00 1.000000e+00 0.000000e+00
    outer loop
      vertex   -4.500000e+00 4.000000e+00 -2.000000e+01
      vertex   1.750000e+01 4.000000e+00 -2.500000e+01
      vertex   -1.750000e+01 4.000000e+00 -2.500000e+01
    endloop
  endfacet
  facet normal 0.000000e+00 1.000000e+00 -0.000000e+00
    outer loop
      vertex   1.215000e+01 4.000000e+00 2.650000e+00
      vertex   1.215000e+01 4.000000e+00 5.550000e+00
      vertex   1.750000e+01 4.000000e+00 2.500000e+01
    endloop
  endfacet
  facet normal 0.000000e+00 1.000000e+00 0.000000e+00
    outer loop
      vertex   1.750000e+01 4.000000e+00 2.500000e+01
      vertex   1.215000e+01 4.000000e+00 5.550000e+00
      vertex   1.215000e+01 4.000000e+00 1.085000e+01
    endloop
  endfacet
  facet normal 0.000000e+00 1.000000e+00 0.000000e+00
    outer loop
      vertex   1.750000e+01 4.000000e+00 2.500000e+01
      vertex   1.215000e+01 4.000000e+00 1.085000e+01
      vertex   8.850000e+00 4.000000e+00 1.085000e+01
    endloop
  endfacet
  facet normal -0.000000e+00 1.000000e+00 0.000000e+00
    outer loop
      vertex   8.850000e+00 4.000000e+00 -1.085000e+01
      vertex   1.215000e+01 4.000000e+00 -1.085000e+01
      vertex   1.750000e+01 4.000000e+00 -2.500000e+01
    endloop
  endfacet
  facet normal 0.000000e+00 1.000000e+00 0.000000e+00
    outer loop
      vertex   1.750000e+01 4.000000e+00 -2.500000e+01
      vertex   1.215000e+01 4.000000e+00 -1.085000e+01
      vertex   1.215000e+01 4.000000e+00 -5.550000e+00
    endloop
  endfacet
  facet normal 0.000000e+00 1.000000e+00 0.000000e+00
    outer loop
      vertex   1.750000e+01 4.000000e+00 -2.500000e+01
      vertex   1.215000e+01 4.000000e+00 -5.550000e+00
      vertex   1.215000e+01 4.000000e+00 -2.650000e+00
    endloop
  endfacet
  facet normal 0.000000e+00 1.000000e+00 0.000000e+00
    outer loop
      vertex   1.215000e+01 4.000000e+00 -2.650000e+00
      vertex   1.215000e+01 4.000000e+00 -5.550000e+00
      vertex   8.850000e+00 4.000000e+00 -2.650000e+00
    endloop
  endfacet
  facet normal 0.000000e+00 1.000000e+00 0.000000e+00
    outer loop
      vertex   8.850000e+00 4.000000e+00 -2.650000e+00
      vertex   1.215000e+01 4.000000e+00 -5.550000e+00
      vertex   8.850000e+00 4.000000e+00 -5.550000e+00
    endloop
  endfacet
  facet normal -0.000000e+00 1.000000e+00 0.000000e+00
    outer loop
      vertex   1.215000e+01 4.000000e+00 -2.650000e+00
      vertex   1.215000e+01 4.000000e+00 2.650000e+00
      vertex   1.750000e+01 4.000000e+00 -2.500000e+01
    endloop
  endfacet
  facet normal 0.000000e+00 1.000000e+00 -0.000000e+00
    outer loop
      vertex   1.750000e+01 4.000000e+00 -2.500000e+01
      vertex   1.215000e+01 4.000000e+00 2.650000e+00
      vertex   1.750000e+01 4.000000e+00 2.500000e+01
    endloop
  endfacet
  facet normal 0.000000e+00 1.000000e+00 0.000000e+00
    outer loop
      vertex   -4.500000e+00 4.000000e+00 -5.000000e+00
      vertex   -4.500000e+00 4.000000e+00 -1.000000e+01
      vertex   -1.450000e+01 4.000000e+00 -5.000000e+00
    endloop
  endfacet
  facet normal 0.000000e+00 1.000000e+00 0.000000e+00
    outer loop
      vertex   -1.450000e+01 4.000000e+00 -5.000000e+00
      vertex   -4.500000e+00 4.000000e+00 -1.000000e+01
      vertex   -1.450000e+01 4.000000e+00 -1.000000e+01
    endloop
  endfacet
  facet normal 0.000000e+00 1.000000e+00 0.000000e+00
    outer loop
      vertex   -1.450000e+01 4.000000e+00 -5.000000e+00
      vertex   -1.450000e+01 4.000000e+00 -1.000000e+01
      vertex   -1.750000e+01 4.000000e+00 -2.500000e+01
    endloop
  endfacet
  facet normal 0.000000e+00 1.000000e+00 0.000000e+00
    outer loop
      vertex   -1.750000e+01 4.000000e+00 -2.500000e+01
      vertex   -1.450000e+01 4.000000e+00 -1.000000e+01
      vertex   -1.450000e+01 4.000000e+00 -2.000000e+01
    endloop
  endfacet
  facet normal 0.000000e+00 1.000000e+00 0.000000e+00
    outer loop
      vertex   -1.750000e+01 4.000000e+00 -2.500000e+01
      vertex   -1.450000e+01 4.000000e+00 -2.000000e+01
      vertex   -4.500000e+00 4.000000e+00 -2.000000e+01
    endloop
  endfacet
  facet normal 0.000000e+00 1.000000e+00 0.000000e+00
    outer loop
      vertex   -4.500000e+00 4.000000e+00 1.000000e+01
      vertex   -4.500000e+00 4.000000e+00 5.000000e+00
      vertex   -1.450000e+01 4.000000e+00 1.000000e+01
    endloop
  endfacet
  facet normal 0.000000e+00 1.000000e+00 0.000000e+00
    outer loop
      vertex   -1.450000e+01 4.000000e+00 1.000000e+01
      vertex   -4.500000e+00 4.000000e+00 5.000000e+00
      vertex   -1.450000e+01 4.000000e+00 5.000000e+00
    endloop
  endfacet
  facet normal 0.000000e+00 1.000000e+00 0.000000e+00
    outer loop
      vertex   -1.450000e+01 4.000000e+00 1.000000e+01
      vertex   -1.450000e+01 4.000000e+00 5.000000e+00
      vertex   -1.750000e+01 4.000000e+00 2.500000e+01
    endloop
  endfacet
  facet normal 0.000000e+00 1.000000e+00 0.000000e+00
    outer loop
      vertex   -1.750000e+01 4.000000e+00 2.500000e+01
      vertex   -1.450000e+01 4.000000e+00 5.000000e+00
      vertex   -1.450000e+01 4.000000e+00 -5.000000e+00
    endloop
  endfacet
  facet normal 0.000000e+00 1.000000e+00 0.000000e+00
    outer loop
      vertex   -1.750000e+01 4.000000e+00 2.500000e+01
      vertex   -1.450000e+01 4.000000e+00 -5.000000e+00
      vertex   -1.750000e+01 4.000000e+00 -2.500000e+01
    endloop
  endfacet
  facet normal 0.000000e+00 1.000000e+00 0.000000e+00
    outer loop
      vertex   -4.500000e+00 4.000000e+00 1.000000e+01
      vertex   8.850000e+00 4.000000e+00 5.550000e+00
      vertex   -4.500000e+00 4.000000e+00 5.000000e+00
    endloop
  endfacet
  facet normal -0.000000e+00 -1.000000e+00 -0.000000e+00
    outer loop
      vertex   8.850000e+00 0.000000e+00 1.085000e+01
      vertex   -1.750000e+01 0.000000e+00 2.500000e+01
      vertex   8.850000e+00 0.000000e+00 5.550000e+00
    endloop
  endfacet
  facet normal -0.000000e+00 -1.000000e+00 0.000000e+00
    outer loop
      vertex   8.850000e+00 0.000000e+00 5.550000e+00
      vertex   -1.750000e+01 0.000000e+00 2.500000e+01
      vertex   8.850000e+00 0.000000e+00 2.650000e+00
    endloop
  endfacet
  facet normal 0.000000e+00 -1.000000e+00 -0.000000e+00
    outer loop
      vertex   8.850000e+00 0.000000e+00 5.550000e+00
      vertex   8.850000e+00 0.000000e+00 2.650000e+00
      vertex   1.215000e+01 0.000000e+00 5.550000e+00
    endloop
  endfacet
  facet normal 0.000000e+00 -1.000000e+00 -0.000000e+00
    outer loop
      vertex   1.215000e+01 0.000000e+00 5.550000e+00
      vertex   8.850000e+00 0.000000e+00 2.650000e+00
      vertex   1.215000e+01 0.000000e+00 2.650000e+00
    endloop
  endfacet
  facet normal 0.000000e+00 -1.000000e+00 0.000000e+00
    outer loop
      vertex   1.215000e+01 0.000000e+00 5.550000e+00
      vertex   1.215000e+01 0.000000e+00 2.650000e+00
      vertex   1.750000e+01 0.000000e+00 2.500000e+01
    endloop
  endfacet
  facet normal 0.000000e+00 -1.000000e+00 0.000000e+00
    outer loop
      vertex   1.750000e+01 0.000000e+00 2.500000e+01
      vertex   1.215000e+01 0.000000e+00 2.650000e+00
      vertex   1.215000e+01 0.000000e+00 -2.650000e+00
    endloop
  endfacet
  facet normal 0.000000e+00 -1.000000e+00 0.000000e+00
    outer loop
      vertex   1.750000e+01 0.000000e+00 2.500000e+01
      vertex   1.215000e+01 0.000000e+00 -2.650000e+00
      vertex   1.750000e+01 0.000000e+00 -2.500000e+01
    endloop
  endfacet
  facet normal 0.000000e+00 -1.000000e+00 0.000000e+00
    outer loop
      vertex   1.750000e+01 0.000000e+00 -2.500000e+01
      vertex   1.215000e+01 0.000000e+00 -2.650000e+00
      vertex   1.215000e+01 0.000000e+00 -5.550000e+00
    endloop
  endfacet
  facet normal 0.000000e+00 -1.000000e+00 0.000000e+00
    outer loop
      vertex   1.750000e+01 0.000000e+00 -2.500000e+01
      vertex   1.215000e+01 0.000000e+00 -5.550000e+00
      vertex   1.215000e+01 0.000000e+00 -1.085000e+01
    endloop
  endfacet
  facet normal 0.000000e+00 -1.000000e+00 0.000000e+00
    outer loop
      vertex   -1.750000e+01 0.000000e+00 2.500000e+01
      vertex   8.850000e+00 0.000000e+00 1.085000e+01
      vertex   1.750000e+01 0.000000e+00 2.500000e+01
    endloop
  endfacet
  facet normal 0.000000e+00 -1.000000e+00 0.000000e+00
    outer loop
      vertex   1.750000e+01 0.000000e+00 2.500000e+01
      vertex   8.850000e+00 0.000000e+00 1.085000e+01
      vertex   1.215000e+01 0.000000e+00 1.085000e+01
    endloop
  endfacet
  facet normal 0.000000e+00 -1.000000e+00 0.000000e+00
    outer loop
      vertex   1.750000e+01 0.000000e+00 2.500000e+01
      vertex   1.215000e+01 0.000000e+00 1.085000e+01
      vertex   1.215000e+01 0.000000e+00 5.550000e+00
    endloop
  endfacet
  facet normal 0.000000e+00 -1.000000e+00 -0.000000e+00
    outer loop
      vertex   8.850000e+00 0.000000e+00 -5.550000e+00
      vertex   -1.750000e+01 0.000000e+00 -2.500000e+01
      vertex   8.850000e+00 0.000000e+00 -1.085000e+01
    endloop
  endfacet
  facet normal 0.000000e+00 -1.000000e+00 -0.000000e+00
    outer loop
      vertex   8.850000e+00 0.000000e+00 -1.085000e+01
      vertex   -1.750000e+01 0.000000e+00 -2.500000e+01
      vertex   1.750000e+01 0.000000e+00 -2.500000e+01
    endloop
  endfacet
  facet normal 0.000000e+00 -1.000000e+00 0.000000e+00
    outer loop
      vertex   8.850000e+00 0.000000e+00 -1.085000e+01
      vertex   1.750000e+01 0.000000e+00 -2.500000e+01
      vertex   1.215000e+01 0.000000e+00 -1.085000e+01
    endloop
  endfacet
  facet normal 0.000000e+00 -1.000000e+00 0.000000e+00
    outer loop
      vertex   1.215000e+01 0.000000e+00 -5.550000e+00
      vertex   1.215000e+01 0.000000e+00 -2.650000e+00
      vertex   8.850000e+00 0.000000e+00 -5.550000e+00
    endloop
  endfacet
  facet normal 0.000000e+00 -1.000000e+00 0.000000e+00
    outer loop
      vertex   8.850000e+00 0.000000e+00 -5.550000e+00
      vertex   1.215000e+01 0.000000e+00 -2.650000e+00
      vertex   8.850000e+00 0.000000e+00 -2.650000e+00
    endloop
  endfacet
  facet normal -0.000000e+00 -1.000000e+00 0.000000e+00
    outer loop
      vertex   8.850000e+00 0.000000e+00 -5.550000e+00
      vertex   8.850000e+00 0.000000e+00 -2.650000e+00
      vertex   -1.750000e+01 0.000000e+00 -2.500000e+01
    endloop
  endfacet
  facet normal 0.000000e+00 -1.000000e+00 0.000000e+00
    outer loop
      vertex   -1.750000e+01 0.000000e+00 -2.500000e+01
      vertex   8.850000e+00 0.000000e+00 -2.650000e+00
      vertex   8.850000e+00 0.000000e+00 2.650000e+00
    endloop
  endfacet
  facet normal 0.000000e+00 -1.000000e+00 0.000000e+00
    outer loop
      vertex   -1.750000e+01 0.000000e+00 -2.500000e+01
      vertex   8.850000e+00 0.000000e+00 2.650000e+00
      vertex   -1.750000e+01 0.000000e+00 2.500000e+01
    endloop
  endfacet
endsolid
